<svg data-v-fde0c5aa="" xmlns="http://www.w3.org/2000/svg" viewBox="0 0 300 300" class="font"><!----><defs data-v-fde0c5aa=""><!----></defs><rect data-v-fde0c5aa="" fill="transparent" x="0" y="0" width="300px" height="300px" class="logo-background-square"></rect><defs data-v-fde0c5aa=""><linearGradient data-v-fde0c5aa="" gradientTransform="rotate(25)" id="e0138877-a265-4328-b0e7-7256402be05f" x1="0%" y1="0%" x2="100%" y2="0%"><stop data-v-fde0c5aa="" offset="0%" stop-color="#30092A" stop-opacity="1"></stop><stop data-v-fde0c5aa="" offset="100%" stop-color="#CB3C61" stop-opacity="1"></stop></linearGradient></defs><g data-v-fde0c5aa="" id="96f10786-c513-4f6b-b2b9-6da4181e011d" fill="url(#e0138877-a265-4328-b0e7-7256402be05f)" transform="matrix(4.173781138706332,0,0,4.173781138706332,36.49402370417172,113.77157943739908)"><path d="M2.56 2.80L0.84 12.60L3.36 12.60L3.92 9.38L5.54 9.38C6.93 9.38 8.03 9.05 8.82 8.38C9.61 7.71 10.01 6.79 10.01 5.61C10.01 3.74 8.72 2.80 6.13 2.80ZM4.68 5.11L6.01 5.11C6.45 5.11 6.78 5.16 6.99 5.27C7.20 5.38 7.31 5.57 7.31 5.84C7.31 6.30 7.17 6.63 6.90 6.80C6.63 6.98 6.22 7.07 5.67 7.07L4.33 7.07ZM11.63 1.68L9.70 12.60L12.43 12.60L14.36 1.68ZM19.89 6.16L19.67 7.39C19.37 6.48 18.68 6.02 17.58 6.02C17.20 6.02 16.80 6.11 16.39 6.29C15.98 6.46 15.60 6.71 15.25 7.03C14.90 7.36 14.61 7.77 14.39 8.29C14.16 8.80 14.04 9.36 14.04 9.95C14.04 11.81 14.90 12.74 16.62 12.74C17.45 12.74 18.22 12.32 18.94 11.47L18.73 12.60L21.46 12.60L22.62 6.16ZM16.98 9.62C16.98 9.21 17.12 8.88 17.40 8.63C17.67 8.38 17.99 8.26 18.35 8.26C18.62 8.26 18.86 8.33 19.05 8.48C19.24 8.63 19.33 8.85 19.33 9.14C19.33 9.57 19.19 9.90 18.90 10.14C18.61 10.38 18.29 10.50 17.95 10.50C17.66 10.50 17.43 10.42 17.25 10.26C17.07 10.10 16.98 9.89 16.98 9.62ZM23.09 6.16L24.93 12.17L22.81 15.68L25.75 15.68L31.63 6.16L28.69 6.16L26.67 9.66L25.89 6.16ZM41.52 9.25L41.55 12.60L44.42 12.60L44.46 2.45L38.15 8.86L34.38 2.45L30.70 12.60L33.71 12.60L35.17 8.78L37.72 12.95ZM50.72 8.41L48.80 8.41C49.02 7.75 49.42 7.42 49.99 7.42C50.25 7.42 50.43 7.49 50.55 7.62C50.66 7.76 50.72 7.98 50.72 8.27ZM48.51 9.94L53.34 9.94C53.48 9.40 53.55 8.93 53.55 8.53C53.55 6.81 52.42 5.95 50.15 5.95C48.96 5.95 47.94 6.33 47.07 7.08C46.20 7.83 45.77 8.74 45.77 9.81C45.77 11.76 46.97 12.74 49.38 12.74C50.23 12.74 51.00 12.56 51.70 12.20C52.39 11.84 52.92 11.34 53.28 10.68L50.88 10.29C50.66 10.80 50.18 11.06 49.42 11.06C49.12 11.06 48.89 10.99 48.74 10.84C48.59 10.70 48.51 10.44 48.51 10.07Z"></path></g><!----><!----></svg>